<?xml version="1.0" standalone="no"?>
<!DOCTYPE svg PUBLIC "-//W3C//DTD SVG 1.1//EN" "http://www.w3.org/Graphics/SVG/1.1/DTD/svg11.dtd">
<svg xmlns="http://www.w3.org/2000/svg" id="Layer_1" data-name="Layer 1" viewBox="0 0 1080 1080" width="1080" height="1080">
  <path d="M375.14,404.56l-4.6-19.89-51.92.67c.26,5.57.32,7.68-.15,12.41-6.15-6.37-7.04-10.41-7.92-19.42l51.52-.65c9.96-.13,15.68,4.08,18.44,14.07,1.34,4.85-.21,12.39-5.37,12.81Z"/>
  <path d="M325.21,328.82l-4.61-5.04c6.38-6.71,10.92-12.29,20.45-14.71l-15.84,19.75Z"/>
  <circle cx="306.27" cy="704.03" r="5.84"/>
  <circle cx="307.75" cy="566.47" r="4.17"/>
  <rect x="352.33" y="311.23" width="5.59" height="6.51" transform="translate(-104.36 196.66) rotate(-27.14)"/>
  <g>
    <g>
      <path d="M485.82,992.63c-4.06-10.94-1.71-23.6-2.08-36.3l-186.37-.49-9.82,31.49c-1.88,6.03-6.87,11.08-11.69,10.85-5.37-.26-15.13-4.77-13.58-10.48l9.46-34.87c.34-1.27-.15-6.05,1.05-6.33l5.71-1.32,81.4-247.82,13.89-46.46c1.2-4.02-7.41-9.21-.65-15.74,2.89-2.79,1.77-10.7,1.3-16.31-.45-5.31,5.58-13.98,5.88-19.24.78-13.51,3.66-26.15,13.03-36.17l28.05,12.46,6.11-14.73-1.5,14.05,9.25,11.68,51.52-.74.31-85.79-33.3,1.25-13.65.52c.09,2.57.83,7.6,1.94,2.46,2.56.47,5.91,1.14,5.77,2.61-.23,2.46-4.42,30.28-5.88,32.68l-11.81,19.47c-1.88-10.05,11.55-30.31,7.46-39.09l-6.78-14.54c-9.74,1.59-96.6,17.27-97.79,6.74l-10.21-90.01c21.98-3.66,41.63-2.98,63.2-3.33l43.63-.71c5.24-.09,15.95,8.84,19.67.91l2.53-20.09,33.66-1.2.52-21.7c-12.64.08-22.25.59-34.34-1.1-4.38-.61-7.66-11.31-7.47-14.99l35.95-1.68c-23.71-6.19-73.44,7.83-89.94-.89-8.08-8.48-7.53-28.38-1.43-37,2.93-4.14,5.05-6.57,5.15-10.43l.43-17.65c-16.07,1.27-32.52,4.51-48.39,4.75-27.72.41-69.67-24.89-68.59-38.76.27-3.42,5-7.57,9.05-11.34-11.92-25.58-9.65-54.95.14-80.52-2.37-3.21-4.98-6.53-5.67-8.61-3.45-10.4,31.67-43.34,77.14-42.35,22.09.48,42.42,5.99,64.18,9.49,15.11,2.42,31.1,3.12,45.28,3.85l6.31-43.99,81.54-4.2,6.84-5.88,93.6-5.95c19.36-1.23,36.68,0,55.9,4.44l.93,54.48,15.2,1.59c2.7.38,6.08,6.88,6.04,9.84l-1.13,74.26c-.14,8.91-5.18,14.29-12.99,18.54l-2.29,76.96c-.13,4.36-4.88,10.78-9.54,10.82l-139.25,1.22c1.56,10.35,2.43,19.41-.44,29.38-1.08,3.76-9.87,7.1-13.76,6.95l-29.62-1.14c-7.45-.29-14.42-.71-21.17-.23l20.04,2.43c2.1,3.75.95,12.84-.79,17.04l-11.02,2.23-1.1,19.61,35.28.44c2.31,6.65,2.5,13.21,2.31,21.93l33.13.4-.6-20.12c-.1-3.41,3.37-7.46,7.72-8.04l89.45-11.99,8.41,93.61c.43,4.8-4.23,8.16-8.84,8.73l-69.81,8.64c-4.06.5-11.6.65-14.13-.82-2.57-3.05-5-6.25-7.1-7.4s-7.34,2.37-8.46,5.53l9.42,3.89-14.18,5.8,6.91,3.69c2.79,1.49-11.41,39-11.39,45.37l-4.37-5.23c1.14-6.83,3.87-16.49,4.45-23.87.61-7.81-1.27-12.16,5.66-18.98l-20.43,1.44-4-8.18-32.07,3.22-1.25,90.48,31.42-.07c.19-7.24-.36-16.26,3.82-19.51,9.07-7.05,19.73-2.89,29.7-3.16,4.99-.13,10.37-.36,14.87,1.07l20.08,55.33c1.95,5.36-2.2,14.04,3.98,18.33,6.07,4.22-2.52,11.84-1.29,15.24l45.96,126.94,55,148.34c2.73,7.38,10.44,12.38,15.23,16.34l11.35,39.06c1.16,3.99-3.89,8.96-6.88,10.55-3.21,1.71-12.85,2.85-14.35-.5-6-13.38-10.13-24.82-15.2-39.13l-201.83,1.54-1.3,32.84c-.32,8.01-18.54,11.74-21.65,3.37ZM664.5,100.77l-.83,26.98,3.92-2.54.81-49.57-34.52,1.26c-6.08.22-16.71.78-18.61,5.79,3.34,8.19,9.53-.29,13.21-1.07,12.03-2.55,24.56-4.46,37.5-4.26l-1.49,23.41ZM603.67,81.13c5.18,1.1,5.92,1.23,5.82,2.18l-.41,4.1c2.12.13,4.78-2.69,4.58-5.07-.13-1.59-3.47-3.39-5.11-3.35l-29.02.87c-3.8.11-7.86,1.06-9.98,2.51l24.04,3.83c1-2.23,6.98-5.72,10.09-5.06ZM646.53,81.96l-13.16.06c2.16,2.12,5.48,4.44,7.37,3.96,1.51-.39,3.59-2.16,5.78-4.02ZM549.95,93.58l-1.13,25.94,2.95.13,1.13-25.94-2.95-.13ZM650.86,98.05c4.79,5.91-1.47,2.19.31,12.81.11.67,3.05.57,3.29-.06s.98-2.88.98-3.62l.09-12.64-19.69,1.59-24.06,1.94c-7.46.6-15.04,1.72-21.9,2.73,20.06,2.31,40.07-.31,60.99-2.76ZM582.92,107.78c.73-4.66.71-8.74-.06-12.31-.73,4.66-.71,8.74.06,12.31ZM484.25,102.47c20.84,1.86,38.37,2.73,56.97-2.94-10.86-.09-20.76-.35-31.07.59l-25.89,2.35ZM639.36,126.6c2.53-.18,1.52-9.81-.98-9.71l-43.25,1.61c-.37,2.91-.35,7.02-.19,11.26l44.42-3.16ZM430.87,281.3c36.42-15.71,49.31-57.59,42.31-92.55-4.81-24.01-17.75-48.59-42.99-57.53,21.84,18.28,34.29,41.47,36.15,70.41,2.1,32.89-12.16,59.44-35.47,79.67ZM702.95,135.5l-30.12-.71c-11.85-1.01-22.98-.62-34.88.03l-34.25,1.87c17.08,1.18,34.1,1.18,52.06.44,15.74-.64,38.25,2.87,47.2-1.64ZM720.05,133.35l-12.38.8,15.83,4c-.15,1.66.2-2.13.33-3.54.08-.83-2.61-1.13-3.78-1.26ZM472.16,139c-4.97-2.45-10.15-3.51-16.43-2.76,5.01,2.41,10.09,3.45,16.43,2.76ZM530.79,148.31l-25.37-9.71,9.66,10.03c3.75,3.89,10.69,5.54,15.72-.32ZM588.01,176.54c4.4.47,6.2,11.89,2.15,14.96l-5.63-4.11c-.79-.57-3.3,2.76-2.43,3.2l6.27,3.16c1.14.58.06,3.47-.18,5.49,1.06.97,2.3,2.4,2.52,1.78l1.25-3.61c.38-1.08,2.07-3.84,2.67-4.79s3.66,3.65,3.69,4.78l.55,19.7c.17,6.26-.6,10.55,2.02,14.68,8.96-25.47.75-49.04-14.18-68.88-12.44-16.52-30.96-26.74-50.82-22.54,25.22,6.52,33.51,11.89,51.87,32.04-5.89.92-12.81-1.45-16.55-5.12l-4.14-4.05c-.84-.82-3.01,3.15-2.24,4.05l12.02,13.98-7.49-1.3,5.39,14.44,2.22-12.06,5.74-1.01c1.47-.26,3.73-4.96,5.31-4.79ZM713.63,206.78l-45.69-1.3-.86-66.08-1.93,34.2-1.54,34.14,50.02-.96ZM605.87,151.28c35.41,17.47,39.11,60.5,27.97,97.95,11.71-11.84,12.44-48,5.96-67.14-10.41-30.78-32.73-32.59-62.32-40.86,16.85,11.64,27.84,25.02,36.94,42.53l8.49,16.33-7.17-2.21c.62,14.69.62,27.87-.43,42.03l15.8-7.92c4.47-35,.55-56.55-25.24-80.72ZM723.82,147.6h-2v37.98h2v-37.98ZM473.97,152.72l-8.07-2.74c-.05.77,1.56,5.8,2.8,5.22l5.27-2.48ZM543.95,162.77c-6.03-4.11-13.48-7.21-20.93-4.06,5.59,7.14,13.25,6.72,20.93,4.06ZM408.68,237.88c9.59-23.47,7.74-52.32-8.45-72.73,5.59,15.22,11.01,28.52,10.09,44.36l-1.64,28.38ZM514.34,254.11c16.91-19.22,18.43-63.02,5.81-82.84,6.15,32.06,9.4,42.32-2.49,71.86-1.68,4.18-3.15,6.03-3.33,10.98ZM552.94,174.84c-8.05-3.81-15.1-3.77-21.82-1.9,4.53,9.5,14.98,7.33,21.82,1.9ZM360.48,207.5c-.03-7.08,5.06-14.4,12.5-12.97-2.06,4.71-5.5,10.4-3.95,12.81,1.35,2.1,5.89,4.74,8.25,5.54s8.58-2.68,8.46-5.3c-.75-15.58-11.66-31.51-28.15-33.17-7.17-.72-15.28,6.18-18.41,12.52-8.2,16.61-6.29,37.33,7.34,50.12,9.42,8.84,24.14,4.26,31.31-5.11-10.05-5.43-17.31-12.81-17.35-24.42ZM293.69,244.03c-7.86-23.48-6.47-44.67-1.79-68.96-10.39,21.86-11.02,48.16,1.79,68.96ZM559.45,190.05c-8.25-7-15.94-5.66-22.47-.26,7.02,5.01,17.52,6.11,22.47.26ZM722.86,201.74c.88-5.37.86-10.04-.06-14.33-.88,5.37-.86,10.04.06,14.33ZM585.75,210.17c3.81.45,5.87,1.2,5.78.16l-.65-7.62-8.48,8.39c-.63-4.67-2.2-10.31-5.46-13.56-2.14,5.84-.26,9.82,2.23,15.17l.12,14.04,14.34-2.36c-2.14-.99-7.57-3.23-7.64-5.32l-.26-8.91ZM560.91,203.42c-6.65-4.46-16.53-5.69-19.86-.08.72,4.13,6.45,7.09,9.78,6.66,4.55-.6,9.52-1.92,10.08-6.58ZM418.49,219.5c1.77-7.26,1.83-11.82.15-16.11l-.15,16.11ZM453.77,208.46l-24.68-2.03c7.74,5.68,16.78,3.2,24.68,2.03ZM511.05,209.4h-30.22c9.79,3.47,20.44,3.47,30.22,0ZM541.12,216.34l-.02,7.76,19.2.05.02-7.76-19.2-.05ZM721.49,224.07c.04-2.08.32-4.77-.52-4.55l-3.93,1.01-7.57,2.29,12.03,1.25ZM698.04,261.64l.81-19.6-21.39-1.4,20.87-2.54,1.22-10.08-26.21.93-3.45,60.34c10.19.68,18.41.76,28.67-.68.77-6.59.81-14.27.5-19.44-9.94,2.06-15.11,3.05-22.71-.71,1.85-8.14,21.37,1.05,21.69-6.82ZM558.73,232.26l-16.9-1.27c-1.95-.15-4.12,7.4-2.23,7.62l6.34.71c5.74.65,11.7.79,12.79-7.06ZM597.83,239.36c3.12-2.5,2.8-4.7-2.47-1.72-4.83.82-3.35,1.23,2.47,1.72ZM577.52,251.15l-2.84-7.21-2.87,6.72c-.45,1.06,5.06.69,5.71.49ZM531.97,252.33c8.46-.1,16.31-.46,20.77-1.02,1.04-.13.69-5.54-.31-5.21l-4.76,1.54c-3.53,1.15-6.93,1.14-13.09.49.23-.37-1.19,1.91-2.61,4.2ZM402.58,247.35l-5,10,3.2,1.6,5-10-3.2-1.6ZM705.83,251.55h-2v38.98h2v-38.98ZM547.73,258.51l-17.98,1.84c5.77,1.82,10.95,2.66,17.98-1.84ZM508.93,259.54l-10.99,10.99,2,2,10.99-10.99-2-2ZM617.69,269.09c5.94-.28,8.56-3.56,7.78-7.84l-7.78,7.84ZM539.85,269.02c-7.26-1.77-11.82-1.83-16.11-.15l16.11.15ZM584.56,299.38c-1.13,0-4.65,3.44-4.74,4.05l71.89.16,1.4-22.48c-1.52,5.32-2.93,11.62-4.38,18.44-.49,2.3-6,.31-9.67.28l-54.5-.45ZM542.15,283.45l-39.83,3.57c-6.38,3.09,53.86.55,39.83-3.57ZM503.26,288.8c-4.84-6.23-10.89-4.43-13.45.71l13.45-.71ZM354,287.53h-18.99v2h18.99v-2ZM485.88,289.02c-7.26-1.77-11.82-1.83-16.11-.15l16.11.15ZM617.64,288.2l-30.44-.81c-.68-.02-4.03,3.45-3.36,3.53,5.69.73,29.65,2.1,33.81-2.73ZM417.27,292.37l18.89-1.9c-6.57-.88-14.14-1.56-19.76-.66l-18.61,2.97c6.54.64,12.52.29,19.48-.41ZM496.29,306.65c2.71,1.71,7.85-3.68,6.39-6.16-1.29-2.19-4.39-4.11-8.83-5.83-.56,5.19-.15,10.35,2.44,11.99ZM558.8,311.64c2.1-3.38,1.47-8.24-2.83-10.18l2.83,10.18ZM571.59,317.72l-2.99-4.27-18.92,3.45,21.91.82ZM434.7,345.21l4.04-26.84c-5.79,8.92-5.44,18.58-4.04,26.84ZM473.6,349.53c-3.38-10.84-3.51-18.91-2.28-29.84-6.6,3.68-8.19,10.33-7.62,16.65.49,5.43,3.58,11.11,9.9,13.19ZM525.5,333.9c-.06-2.1-4.99-6.17-7.13-6l-20.09,1.67,5.33,10.25c4.63.22,22.13,2.73,21.88-5.92ZM411.36,333.43l-3.08.62,3.38,16.91,3.08-.62-3.38-16.91ZM656.69,459.66l20.24-1.62c-8.06,7.89-18.88,4.43-29.05,5.59l-19.77,2.25c-4.83.55-10.79,2.77-16.25,4.41l-3.04,12.56c14.99-3.62,65.58-5.9,70.11-9.41,1.34-1.04.81-5.37.66-7.56l-5.53-80.66-69.42,10.59-.03,18.51c18.55-4.01,37.11-7.93,52.81-10.33,2.15-.33,2.42,6.27.86,6.16l-5.16-.36c-9.39-.36-20.31,3.76-29.42,5.36-15.67,2.74-25.64,9.26-27.1,26.69l-2.16,25.86c-.37,4.47,4.28,12.43,7.71,16.88l4.02-18.37c17.03-2.43,32.72-5.13,50.5-6.55ZM584.82,419.38l2.76-20.31c-5.69,4.99-4.22,13.79-2.76,20.31ZM423.49,470.08c-3.29.34-2.78,12.6-.39,13.22l12.97-3.67c1.7-.48,4.14,5.61,4.31,6.37,10.05-1.05,20.3-1.23,30.9-.95,28.21.73,66.05-1.06,91.76-7.79-.49-18.74-1.35-41.51,18.6-45.25,1.38-.26,5.48-3.11,4.5-3.65s-4.22-2.76-6.3-2.8c-48.77-.8-103.93-.03-153.86,2.48l5.27,9.76c-2.96-1.91-7.29-5.05-10.08-7.43-1.85-1.57-9.21-1.4-9.77.89-.47,1.9-.21,4.62.17,7.69l1.74,13.88,26.49.48,1.73-10.04,16.59-2.09c6.71-.85,12.8,2.44,16.34,8.13,2.35,3.77,3.91,15.16-2.39,15.8l-48.57,4.96ZM349.91,440.44c.9-5.07,1.66-7.29,2.66-7.18l17.88-2.96-23.53-.57,1.57,21.78c2.53-4.81,5.74-10.12,9.54-11.32,5.73-1.8,12.8-1.41,17.32,2.45-.07.44.41-2.87.59-4.18.35-2.45-20.65-1.11-26.03,1.99ZM584.67,456.04c3.42-3.78,4.47-9.76,1.66-13.84s-9.03-2.9-13.62,1.5l11.96,12.34ZM365.18,464.45c2.86-1.44,6.13-5.66,6.47-8.29.41-3.16-2.33-9.89-5.14-9.26-8.15,1.8-6.69,13.71-1.33,17.55ZM459.71,452.58c-.11,2.27,1.35,7.28,3.06,7.38,1.28.08,4.96-.88,4.7-2.13l-1.33-6.2c-.27-1.25-6.36-.29-6.42.95ZM369.84,497.61c-6.32-7.82-10.34-14.93-13.2-24.3l-6.18-20.23c-1.94,16.55,1.11,30.41,5.34,46.43l14.04-1.89ZM576.44,480.26c1.57-3.07,5.35-7.66,5.87-10.5l1.81-9.92-15.03-5.62c-1.45,1.74-2.44,10.53-.75,12.77s5.75,3.28,9.86,5.19c-6.57,5.2-15.36,9.66-16.24,16.92-.64,5.21,7.97,4.86,10.92,2.38,2.32-1.95,2.09-8.34,3.57-11.22ZM386.88,479.02l-7.93-21.9c.08,17.87-21.38,14.27-11.31,27.34,2.68,3.48,7.21,5.68,10.92,5.29,4.17-.44,10.08-5.89,8.33-10.73ZM402.65,480.04c1.64.8,7.86,3.46,9.73,1.82s3.27-5.12,5.51-9.98c-8.88-2.08-17.43-2.28-26.59-.12l5.7,3.33c.83.49.56,3.66-.4,3.57l-5.07-.49c-1.89-.18-1.48,5.72.14,6.72s5.36,2.39,7.26,2.48,3.04-5.91,3.72-7.34ZM410.1,599.49c4.11-5.79,7.18-12.11,4.39-18.71-2.45,6.46-3.59,12.05-4.39,18.71ZM438.51,859.35l-2.37-28.73c.81-3.69,3.23-5.39,3.21-.25l1.95,23.14,2.99,29.02c14.03-3.17,25.84-3.97,40.16-4.45l3.18-273.06-52.64-.12-4.75,9.81-16.53.18-9.51,36.23c-5.42,2.16-7.41,4.44-9.13,9.73l-88.06,271.2,132.99.82c-2.79-32.55,1.13-41.89-1.48-73.51ZM573.73,723.63c-7.15-.6-13.64,4.25-13.85,9.78-.09,2.34,5.71,6.1,7.72,5l7.85-4.29c-.15,5.38-7.3,11.29-12.81,9.71-4.16-1.2-10.02-11.65-7.25-15.17,3.55-4.51,10.85-9.03,14.06-14.18,8.88-14.24,15.1-34.6,7.86-50.42-1.91-4.17-7.89-8.15-8.3-13.53l-2.48-32.85c-8.79-1.16-11.89-5.34-14.97-12.63l-35.9.25-3.04,270.85c11.97,8.22,32.59-7.76,40.58,18.55l2.54,38.13,142.28-.71-85.08-229.11-17.54-44.97c-.89-2.27-4.15-4.92-7.13-6.73-5.31,28.81,3.1,42.81-14.54,72.33Z"/>
      <path d="M347.25,197.44c-3.33,16.65,1.84,28,15.78,39.35-17.03,2.2-23.33-16.61-23.42-31.3-.08-13.61,10.11-27.55,22.08-24.8,12.95,2.98-11.5,1.96-14.45,16.75Z"/>
    </g>
    <path d="M481.34,748.4c-18.3,4.32-35.75,5.28-52.26,1.84l-31.35-6.54,29.21,1c-1.38-46.55-21.4-75.8-4.15-123.46,2.97,5.78,3.11,14.25,1.56,19.98-6.8,24.99-.43,46.17,2.57,70.73l4.01,32.81c15.18,4.22,45.11-1.07,50.4,3.63Z"/>
    <g>
      <path d="M514.47,473.47c-8.51,2.57-34.54,6.21-42.43,2.87-.76-.32,2.94-3.36,3.8-3.49l28.78-4.11c3.7-.53,9.22-2.71,10.32-5.25,3.8-8.8-7.76-21.08.79-23.98,4.36-1.48,11.07,1.64,13.15,4.75,5.62,8.42,1.45,25.94-5.99,26.62-3.16.28-4.9,1.53-8.41,2.59Z"/>
      <path d="M603.64,432.12l22.35-8.38c5.97,4,13.62,10.81,19.28,15.86,1.99-7.42,6.35-16.67,11.4-19.17,8.62,3.89,5.22,13.14,1.4,18.51-4.48,6.31-12.2,5.05-18.98.86l-13.68-8.45c-7.46.57-11.81,1.81-21.79.76Z"/>
    </g>
  </g>
</svg>