<?xml version="1.0" standalone="no"?>
<!DOCTYPE svg PUBLIC "-//W3C//DTD SVG 1.1//EN" "http://www.w3.org/Graphics/SVG/1.1/DTD/svg11.dtd">
<svg xmlns="http://www.w3.org/2000/svg" id="Layer_1" data-name="Layer 1" viewBox="0 0 1080 1080" width="1080" height="1080">
  <path d="M379.66,496.18l-22.37-7.76c-18.07,1.33,48.16,34.49,47.58,34.2,7.92,3.87,14.11,4.93,17.1,13.9l29.25,87.72c6.6,19.78,19.43,49.9,44.74,38.51,3.77-1.7,7.65-1.91,13.38-1.25l-8.73,7.47,5.65,3.64-27.7,2.05c-6.3.47-13.35,10.64-20.73,8.85-5.37-1.3-9.27-.63-13.09,2.75l1.04-16.72c.64-10.18-8.17-19.33-16.61-24.86l5.9-11.23,4.05,7.6,17.42,34.42c4.5,1.5,12.73-1.92,14.75-6.09-13.11-12.07-21.25-25.87-26.54-42.55l-27.31-86.13c-2.8-8.83-8.37-12.38-17.09-13.49l-18-8.61c14.48,22.25,5.76,19.62,4.14,48.13l-5.84-31.62-4.43-21.51-21.57-11.92c-6.55-3.62-4.63-9.41-4.79-15.18-.25-9.02,1.18-18.54,10.35-21.35l5.12-10.78-36.57.8,6.35,29.42c.7,3.24,8.52,6.02,11.66,6.66-2.08,14.19-4.01,28.69-7.48,43.23-1.84,7.7-11.98,12.47-15.31,20.11,9.75-2.65,15.49-10.2,24.39-18.64,4.31,2.6,1.52,12.13,3.05,16.04,3.05,7.85,6.13,15.59.65,22.9-.95,1.26-3.11,4.65-4.24,4.33l-4.53-1.28c-2.25.2-6.35.93-7.71-.23l-7.44-6.33c-2.49,15.19.33,27.87,2.89,43.42-1.64-1.47-4.84-6.43-5.04-8.77l-3.75-43.22c-24.24,9.19-62.24-17.51-69.98-43.01-1.79-5.9-1.4-15.36,2.1-20.85,2.84-4.46,11.3-7.38,17.09-10.49l8.59-13.75c2.84-4.54.77-15.81-.89-21.87-15.63-9.28-26.84-24.26-26.82-43.16-17.02-6.33-22.3,15.33-30.16,5.13-1.51-1.96-3.26-6.82-3.3-10.3s4.6-8.87,8.06-9.47c2.96-.51,7.05,3.47,10.12,6.97,2.52,2.87,11.3-.19,15.3-2.72,2.02-17.12,10.15-33.22,23.74-43.09-5.2-12.13-9.01-34.3,2.84-44.68l-1.89-26.61c-32.41-1.19-55.77-25.79-56.68-57.53-.73-25.48,14.27-48.81,36.45-57.48,25.34-9.9,53.27-1.86,69.25,19.78,11.76,15.92,14.53,35.6,7.98,55.56-4.97,15.12-18.2,29.97-36.36,36.37-1.51,24.19,10.24,8.42,19.51,26.86l106.16,1.56c4.45.07,7.71,3.16,9.45,6.52l.67-35.47c-31.56-5.77-49.48-39.03-40.13-70.11,3.17-10.52,12.63-14.82,18.33-22.07,8.52-10.83,14.56-20.64,32.21-18.69,27.26,3.01,55.18,2.75,82.45-2.28,18.86-3.47,37,.23,53.52,7.81,7.1,3.26,7.36,11.38,10.92,15.39,8.45,9.51,17.51,15.68,21.96,29.05,1.52,4.57,9.14,10.39,11.46,15.34,21.66,46.12,5.55,99.92-27.44,136.85l16.35,16.03c18.82,6.91,35.95,13.17,51.75,24.76,46.23,33.89,73.76,104.49,91.81,157.15,20.96.2,12.79,39.18,11.31,54.34l-2.53,25.96c6.01-7.57,33.75-32.53,41.76-26.68,9.99,7.29-8.9,47.16-12.43,57.34,55.77-17.06-21.32,77.25-30.45,83.81l11.97,3.15-12.73,87.97,40.67.03c1.66,0,4.61,2.23,5.32,3.09.94,1.14-3.1,4.54-4.82,4.54l-319.03-.1c-1.49,0-4.2-1.82-4.95-2.7-1.01-1.18,2.87-4.71,4.77-4.73l23.71-.24,1.47-127.87c.18-15.77,2.48-36.81,4.51-50.91.27-1.86-5.82-3.72-8.27-4.35,8.41-.43,11.64-6.33,14.97-13.2,6.55-13.51,32.1-20.18,23.38-27.46-14.99-12.5-27.54-26.56-38.29-40.87l-4.14,9.09-7.66-31.5-56.91-74.03c5.06-34.39-9.87-38.88-26.39-67.29-21,1.84,18.72,43.84,10.41,42.91-.84-.09-4.5-.41-5.06-1.04l-22.48-24.93c-9.77,7.36,4.16,20.19,5.69,26.1.24.95-4.61,1.76-5.39,1.13l-17.14-14.1c-1.44-1.18-6.45-1.3-8.11-.5-1.99.95-1.89,7.38.02,8.74l15.39,10.9c1.08.77,3.28,4.04,2.18,4.31s-4.41.62-5.56.13l-20.16-8.58c-1.33-.57-6.3,1.75-6.33,3.18-.23,10.15,22.47,8.35,24.32,20.15ZM518.91,236.64l-8.27,15.21c10.11,2.87,16.52-2.05,21.46-8.51l12.91-16.88,1.64,9.4c.39,2.24,7.74,1.28,9.64-.41l19.02-16.86-.63,11.84c-.12,2.25,3.68,4.87,8.17,6.77-10.81,13.14-25.44,20.86-42.95,29.21,18.94,3.71,51.42-3.37,48.35-25.29l6.8.27c1.11.04,1.92,1.92,1.16,2.72-8.21,8.68,3.21,7.54-6.81,30.4,1,1.02,3.38,2.38,4.01,1.58l3.29-4.12c13.75-17.23,17.02-39.04,5.74-58.19-4.52-7.67-12.5-11.78-18.56-17.44-3.48-3.24-3.5-14.09-9.79-16.67-18.26-7.5-35.93-7.67-55-4.05-44.61,8.48-56.89-1.23-89.45,2.65-2.97.35-9.2,4.91-8.69,7.81l1.87,10.57-14.57,2.46c-15,15.81-16.11,40.03-.87,56.1l8.05-5.06c4.57,1.67,8.5,2.7,14.11,2.25-8.43-17.44-11.46-4.04-16.97-29.04,1.09-5.1.92-7.44-2.63-12.44l5.79-1.08c2.79-.52,13.38,18.15,27.8,21.34l9.18-6.92,27.31-.41c1.17-.02,4.62,2.52,3.84,3.23-9.58,8.61-11.37,2.9-23.35,14.95,16.55,11.67,36.18,7.27,49.77-4.32,1.78-1.52,6.71-1.75,8.64-1.06ZM301.4,218.23c-3.28-14.95-18.19-21.04-30.11-16.18,13.55-.6,22.76,6.51,30.11,16.18ZM256.72,221.16l7.44-14.28c-6.39,2.71-9.97,7.24-7.44,14.28ZM271.72,234.74c-.2.34,3.88,5.46,5.84,6.82s6.21-2.74,7.12-4.95c.77-1.89-1.07-7.73-2.18-7.11l-10.77,5.24ZM476.61,354.6l.87,35.93c35.66,17.9,67.41-3.33,76.92-3.67,1.28-.05,1.4,4.62,1.22,5.91-2.11,15.08-14.46,24.45-24.08,34.24.08,10.47,14.46,17.99,25.35,14.58,25.97-8.14,36.07-24.87,51.07-46.91-21.12-31.71-32.08-12.22-46.62-35.59,17.95,1.06,31.6-8.38,33.49-24.78,1.27-11.01-5.4-19.98-15.03-23.04s-17.34,5.52-23.55,12.89c-16.71-2.28-28.5-18.78-32.65-35.33l-10.95,2.1c2.47,4.92,4.24,9.66,2.48,12.52-8.42,2.33-18.23-3.79-21.13-11.13l4.84-5.56-6.1-11.33c-21.3,6.31-30.47.06-52.85,4.88-4.83,18.16-2.46,32.54,2.78,48.11-4.06.15-8.43.69-8.86-1.02l-1.67-6.63c-.45-1.79-5.91,3.1-4.81,4.6l3.4,4.62-5.56,4.29c-1.3,1,1.1,5.11,1.62,6.87l3.36,11.3c.81,2.72,1.39,4.31,1.98,5.6.44.96,5.48-1.29,5.93-2.21,1.97-3.98-1.42-10.91-8.75-15.68,12.5-3.51,23.85-3.13,35.44-1.46l1.79-10.71c4.65-5.73,6.89-10.45,11.3-18.62,6.93,17.35-4.66,22.97-3.93,23.45l4.23,2.78c.97.64,2.99,4.11,2.03,4.79-.72.51-2.14,1.08-2.94.71l-4.76-2.21,5.94,14.57,21.37-4.36c-4.41,10.21-14.16,9.01-23.16,5.53ZM290.74,306.3c1.59-8.17-.47-15.06-5.06-21.8-.31,7.9,1.65,14.31,5.06,21.8ZM309.33,317.11c4.84-1.06.87-12.61-3.07-11.36s-5.61,13.26,3.07,11.36ZM425.11,318.41l-23.98-3.75-85.88.51,37.99,3.49,71.87-.25ZM282.65,325.47l6.94-8.61c-4.88-.57-7.94,4.43-6.94,8.61ZM393.12,338.57c7.66,3.3,15.49,3.63,24.38,2.04l2.84-16.85-126.31-1.06c-2.96,8.47-2.44,15.09-.38,24.5,28.34,4.77,26-9.46,38.71,3.47,4.63,4.71,19.96,5.46,24.41.04,15.49-18.86,13.19-2.18,36.36-12.13ZM452.47,349.93c-2.73-2.59-5.97-5-7.61-5.43-1.28-.33-2.95,3.17-3.14,4.11l10.75,1.32ZM325.54,442.81c10.49-22.42,9.08-46.26,4.31-70.45-1.39-7.07-2.14-14.29-8.37-18.1,5.86,16.6,11.34,42.94,8.81,58.73l-4.76,29.82ZM309.52,370.71c-1.13-5.68-6.52-8.68-11.7-10.56-10.26-3.74-21.81-1.43-24.54,11.96,12.54-8.32,21.68-7.02,36.24-1.39ZM471.74,372.35c-6.55-10.77-16.31-3.82-24.39-5.96l-113.44-.23c.79,2.83,3.74,5.57,6.07,5.58l131.76.62ZM279.69,372.45c-14.14,13.64-18.49,35.36-9.01,53.5,3.57,6.83,15.99,16.43,24.06,13.71,25.14-8.47,27.13-51.13,10.6-63.83-5.82-4.47-14.59-5.57-20.95-1.72,2.87,17.02-5.48,9.93-5.8,39.19-16.1-2.24-1.14-30.59,1.1-40.85ZM367.8,382.87c.7.8,1.95-4.05.94-4.41l-4.47-1.59c-1-.36.32,2.36,1.03,3.17l2.49,2.83ZM352.97,392.67c.53-2.61,1.1-7.98-.7-8.06l-7.32-.32c-1.09-.05-2.27,3.65-1.52,4.54s3.15,1.88,3.95,1.04l2.77-2.9,2.82,5.69ZM453.82,403c5.79-4.42,5.88-16.87-1.65-18.79,2.27,6.13,2.33,11.2,1.65,18.79ZM449.66,399.33c-4.63-4.4-6.21-6.17-9.87-10.44-2.13,4.06-1.48,11.74,3.9,15.72l5.97-5.28ZM388.6,401.62l-.75-6.46c-.2-1.73-6.22-2.31-6.62-.62-.38,1.57-.08,5.24,1.22,5.57l6.15,1.52ZM369.52,394.71l-.1,6.34,5.81.09.1-6.34-5.81-.09ZM419.11,402.02c0-4.32-3.5-7.83-7.83-7.83s-7.83,3.5-7.83,7.83,3.5,7.83,7.83,7.83,7.83-3.5,7.83-7.83ZM509.06,405.98l-32.38-8.14-.34,31.5,32.73-23.36ZM660.54,464.66c.85-10.31-2.33-20-9.1-27.17-5.92-6.26-15.88-7.38-26.75-9.39,6.04-5.73,15.66-6.09,23.19-1.56,27.21,16.37,18.7,55.19,12.61,83.81-7.58,35.65-20.13,69.33-40.05,99.31,3.82,6.89,4.7,14.17,4.86,21.62,7.36,5.43,20.16.27,27.55-2.94,2.11-.71,9.11-.41,9.7-2.49,1.14-10.36-1.54-42.27,11.15-46.49,7.6-.26,14.85,7.08,20.14,13.99l13.35-46.5c.3-1.06,2.38-3.53,3-4.16s3.3,1.01,3.27,1.89-.25,3.26-.49,4.13l-13.95,50.09c2.21,9.83,9.01,21.29,14.75,30.61,9.37-14.73,15.95-29.05,26.59-42.03l10.61-12.95c-19.13-55.58-48.01-128.9-98.94-160.94-10.56-6.64-22.73-11.21-34.94-16.51-13.89,21.62-26.49,40.73-43.1,59.04l-.44,9.73c-16.4,5.2-6.56,7.7-21.57,27.09-1.81,2.34-9.69.34-12.06-1.55l-29.72-23.68-8.53-27.26c-35.76,36.68-27.5,30.88-23.42,58.15,1.6,10.66,3.3,18.4,13.51,24.1,4.25-6.35,7.2-13.34,9.36-21.01l4.95-17.57c7.09,15.84-6.98,30.83,6.65,54.64,10.18-2.15,16.41-8.71,23.47-15.17,20.11-18.4,36.11-38.27,51.37-60.38,6.5-9.41,16.1-19.28,29.08-18.35-9.76,6.26-18.24,13.68-25.26,24.06-9.47,14.01-44.42,62.8-60.45,64.93-8.31,9.11-19.06,17.47-30.23,23.85,18.06,36.56,50.64,61.2,87.74,73.72,46.8-41.44,67.22-107.26,72.1-166.66ZM520.27,469.83c9.56-11.19,7.42-12.87,18.34-22.83-8.09-3.86-14.13-13.8-17.04-24.08l-5.1-18.03,3.72.95c.55.14,2.33-.65,2.55-.12l6.16,14.94c1.25-4.51-2.6-18.71-8.13-18.57-1.94.05-7.49,1.47-7.1,3.37l1.59,7.77c-9.87,4.08-19.08,9.99-28.19,16.8-20.58,15.37,1.52,14.77-33.86,44.19-9.97,8.29-9.85,11.62-5.26,24.59,10.03-26,44.93-54.65,59.83-74.64.37,6.7,6.27,52.92,12.48,45.66ZM386.75,404.04c-1.92,2.77-4.14,5.38-3.04,5.63l4.84,1.13c1.09.25.48-3.99-.23-4.85l-1.57-1.91ZM374.04,416.5c-.06.99,1.42,4.78,2.18,4.15.5-.42,1.78-1.33,2.38-1.72.82-.53-.35-2.6-1.09-3.27-.49-.44-3.43.18-3.47.84ZM445.35,422.59v4h11.99v-4h-11.99ZM392.69,435.09l-23.32-1.18c-7.27-1.71-14.44-.42-20.22,4.23,15.44-.19,28.74.81,43.54-3.05ZM564.73,445.39c8.75,3.83,10.83-1.21,12.27-6.03l-12.27,6.03ZM321.49,532.79c4.13.56,8.63,1.79,10.69,2.69l-1.94-36.07c-.84-15.59-5.18-29.85-8.4-45.03l-1.12-5.29c-.2-.96-3.71,3.26-4.78,3.31l-31.38,1.59c-.45,5.11.07,11.27,1.42,15.44,12.35-1.55,28.12,6.5,28.93,19.26,1.34,21.07-13.13,41.43,6.58,44.1ZM458.95,459.12c-6.91-1.26-11.49-1.76-16.85-1.96l2.97,16.5,13.88-14.54ZM328.09,541.26l-20.84-9.11c-.1-14.7.98-27.07,3.03-41.89.91-6.58-15.35-18.86-22.53-14.5-1.32.8-2.91,4.95-2.77,6.61l2.4,29.95c.58,7.3.62,12.06-.02,21.3,3.99,2.68,37.48,15.99,40.74,7.63ZM280.29,494.78c-7.43-.37-19.65,1.6-22.23,9.94-4.76,15.38,6.01,30.69,18.33,38.38-1.19-23.93,8.51-20.82,3.9-48.31ZM336.57,506.69c.75-4.16-.03-8.55-2.92-12.54l.05,20.86,2.87-8.32ZM484.44,533.54l-1.96-11.2c-1.79,4.13-2.33,8.08,1.96,11.2ZM315.68,550.26l-31.85-11.74c-.86,8.37,3.84,12.64,10.93,14.98,7.48,2.47,14.39,5.87,20.92-3.24ZM494.2,551.4c9.99,1,11.81-6.39,12.54-13.29l-12.54,13.29ZM603.94,834.44l2.7,21.71,48.01.09-10.19-88.33,28.01-2.53-7.81-20.93c3.65,1.54-87.75-31.17-66.33-30.25.9.04,4.09,0,5.25.45l57.67,22.16c-1.56-11.13-4.9-18.77-8.55-27.85-8.35-20.77-12.06-41.23-9.94-64.69-31.61-.96-62.44-.95-93.81,4-12.91,2.04-23.43,17.09-26.13,29.11-5.28,23.56-5.72,47.15-1.21,70.22,3.94,20.19,6.42,38.86,12.24,58.91,1.42,4.91,9.57,12.4,12.99,16.31,1.18,1.35-.06,8.28-1.49,7.23-3.94-2.87-8.53-8.64-11.36-12.1-21.76-26.58-6.38-47.84-16.31-72.33l-1.8,110.46,87.13.06.93-21.71ZM724.64,721.46c8.26-1.99,10.31-7.96,9.76-15.41-3.67,5.18-6.82,10.07-9.76,15.41ZM724.27,767.31c10.37-13.41,8.67-26.85,9.95-41.82-7.42-.63-12.83,37.52-9.95,41.82ZM711.91,767.17c6.86-9.19,8.16-19.7,6.37-27.52l-2.94-12.85c-5.92-1.56-5.12,34.9-3.43,40.37ZM679.95,767.05c.7-14.41-4.88-26.07-12.86-36.79l12.86,36.79ZM701.87,767.16c4.44-12.79,2.48-22.68.36-34.02-2.38.47-5.67,1.51-6.47,3.22-.65,1.37-.55,5.83-.13,7.4l6.25,23.4ZM690.23,765.9c5.76-10.27-1.13-19.89-3.26-26.85l-4.26-1.62c-.94-.36-1.55,4.19-1.18,5.22l8.7,23.25ZM746.68,754.64c.93-2.04-3.65-8.17-4.77-6.54-4.06,5.86-6.43,12.5-6.05,18.56,5.65-3.06,8.46-6.84,10.82-12.02ZM763.05,758.73l-3.36-4.95c-6.65,3.26-11.21,6.08-10.95,13.96,5.65-2.64,8.44-4.64,14.32-9.01ZM654.36,794.1l7.44,61.68,94.66.17,12.22-81.67-115.88-.98c-2.5,8.98,4.5,14.53,12.55,14.53l29.65-.02c1.68,0,5.21,2.45,5.88,3.6s-3.1,3.04-4.49,3.03l-42.02-.34Z"/>
  <path d="M309.65,618.19c28.16,16.13,35.9,15.92,70.13,12.53,6.67-.66,17.16,9.26,23.73,1.34,3.74-4.51,2.48-16.63,2.6-23.35l.42-24.51-14.53,37.21c-2.21-15.82,5.42-27.59,8.82-41.23l5.34-21.46c3.89,4.27,5.03,11.63,3.43,17.61-2.44,9.12,3.41,15.25,4.46,22.44,2.4,16.37-2.87,32.8-7.4,49.44-2.34-3.01-2.97-5.74-4.26-11.97l-39.35,3.33c-20.25,1.71-41.59-4.24-53.38-21.39ZM408.29,616.71c.9-4.7.9-8.81-.01-12.31-.58,4.71-.57,8.74.01,12.31Z"/>
  <polygon points="179.35 514.96 167.18 527.78 155.59 514.97 168.13 503.59 170.44 512.83 179.35 514.96"/>
  <path d="M196.85,350.14c-10.48-4.31-21.3-6.54-29.27-13.41.69-7.06,43.01,9.87,33.25,12.38l-3.99,1.03Z"/>
  <path d="M379.27,181.5l-1.45-12.06c-3.35-.71-7.61-1.67-9.75-2.41-2.26-.78.87-8.5,2.87-7.53l17.07,6.69c.13,3.44-2.81,9.39-8.74,15.31Z"/>
  <path d="M198.46,387.21c.73,3.21-29.76,3.23-31.19-1.98,9.88-4.06,21.41-2.85,30.38-1.58l.81,3.56Z"/>
  <path d="M364.44,177.08c-2.11,1.41-6.17,3.67-8.79,4.78-3.01,1.28-11.45-3.98-9.84-6.53,4.43-7.04,13.31-3.64,18.63,1.75Z"/>
  <rect x="151.49" y="413.21" width="24.66" height="4.5"/>
  <path d="M233.21,333.43c.81,1.14-4.29,4.37-4.86,3.34l-2.47-4.46-4.57-11.3c2.76,2.09,9.41,8.91,11.91,12.42Z"/>
  <circle cx="788.04" cy="454.8" r="4.91"/>
  <path d="M195.98,439.94c-2.39,5.84-10.04,8.2-14.09,4.09,2.78-3.18,9.62-4.93,14.09-4.09Z"/>
  <circle cx="368.96" cy="190.11" r="4.58"/>
  <rect x="696.35" y="345.36" width="7.67" height="5.9" transform="translate(-7.98 16.53) rotate(-1.34)"/>
  <path d="M570.64,339.98l13.02-13.51c3.85,7.47-7.78,22.67-16.17,19-8.37-3.66-1.12-21.29,6.3-23.74,2.28-.75,8.14.96,9.46,1.77-7.55,3.64-16.32,5.32-12.62,16.48Z"/>
  <path d="M461.94,291.63c.02,8.22-13.45,12.23-17.54,6.21-2.38-3.5,2.13-8.76,5.39-10.23,3.61-1.63,12.14-1.17,12.15,4.03Z"/>
  <path d="M503.65,330.08c-2.64.53-6.79-4.19-6.77-6.51s2.15-8.12,4.47-8.61c2.86-.61,6.97,3.03,7.72,5.18,1.04,3-.76,9-5.42,9.93Z"/>
  <path d="M462.55,323.45c-4.2.23-9.86-1.38-12.62-3.8-1.72-1.5,3.04-7.86,5.38-7.17,3.41,1,6.87,5.86,7.24,10.97Z"/>
  <path d="M302.58,388.37c4.65-1.91,14.68,26.04.53,34.4-4.95-.86-10.5-7.72-11.32-11.92-1.62-8.3,3.47-19.47,10.79-22.48Z"/>
</svg>